PathFileType	3	(X/Y/Z)	D:\minhoCalibration\240510\subject2_KPNP\preferred\preferred06.trc
DataRate	CameraRate	NumFrames	NumMarkers	Units	OrigDataRate	OrigDataStartFrame	OrigNumFrames
200.0	200.0	30	10	mm	200.0	335	188	
Frame#	Time	Left_Ankle_Outer1			Left_Ankle_Inner1			Left_Knee_Outer1			Left_Knee_Inner1			Left_Wrist1			Right_Wrist1			Right_Knee_Inner1			Right_Knee_Outer1			Right_Ankle_Inner1			Right_Ankle_Outer1			
		X1	Y1	Z1	X2	Y2	Z2	X3	Y3	Z3	X4	Y4	Z4	X5	Y5	Z5	X6	Y6	Z6	X7	Y7	Z7	X8	Y8	Z8	X9	Y9	Z9	X10	Y10	Z10	
335	1.665	-524.05841	120.18182	-710.10968	-509.2854	127.28421	-656.43195	-377.27448	542.73193	-791.5827	-371.51443	523.85913	-691.81476	-473.92133	938.64148	-837.20563	-428.98633	1189.9949	-595.6123	-274.55585	995.09589	-207.75729	-308.81564	1077.1709	-210.77007	-326.94205	935.96136	198.56522	-340.81149	1037.6989	206.98975
336	1.67	-524.33673	119.93173	-708.159	-510.01047	126.60857	-654.65948	-378.41351	542.7569	-790.95831	-372.52621	524.06677	-691.14813	-473.11456	939.80939	-837.56812	-429.12183	1189.8033	-594.85205	-280.9184	991.01862	-205.52744	-311.56085	1074.2167	-208.47701	-329.83743	931.00653	197.81363	-344.59872	1032.0963	209.52121
337	1.675	-524.80945	119.68294	-707.04218	-510.37924	127.1062	-652.27002	-379.86078	542.09094	-790.25	-373.00363	524.08722	-691.03815	-471.91763	941.49927	-837.25665	-429.57901	1189.1327	-593.61523	-287.81281	987.03003	-203.5262	-314.68741	1071.7009	-205.4592	-334.47397	926.15302	198.70723	-347.4693	1026.2695	211.27393
338	1.68	-525.24609	119.10346	-706.61041	-510.62656	125.79521	-652.75232	-380.92755	541.36316	-790.11572	-373.1333	523.81409	-691.31812	-470.05466	943.40979	-837.83044	-430.18332	1187.6713	-592.11194	-294.44922	983.39374	-201.5088	-317.34576	1069.3284	-202.87148	-340.3226	920.06354	201.82338	-350.08527	1020.9075	212.73587
339	1.685	-525.58624	118.29794	-706.82904	-511.26349	125.05109	-652.85175	-382.74866	540.32727	-789.42273	-373.0621	523.21637	-691.89624	-468.49918	944.61481	-838.24164	-430.99677	1185.9257	-590.60602	-300.25534	980.05536	-199.54175	-319.64249	1067.2096	-200.4213	-344.28827	913.91974	201.09352	-352.61063	1015.1071	214.35388
340	1.69	-526.01801	117.78588	-707.8623	-512.13971	124.28114	-653.45636	-384.16452	539.43744	-789.36896	-372.93857	522.31793	-692.65143	-465.93515	946.59985	-839.10022	-431.97119	1184.2626	-589.17969	-304.29401	977.11603	-198.00613	-321.52094	1064.9797	-198.17538	-348.92517	909.07483	199.37389	-355.19211	1008.3378	215.64969
341	1.695	-526.33014	116.99823	-709.12549	-512.82581	123.99586	-654.33325	-385.85089	538.34583	-789.36475	-372.90265	521.18634	-693.38324	-463.43805	948.15149	-839.90784	-433.32629	1182.9364	-587.66663	-309.51132	973.21478	-195.74757	-323.07321	1062.3414	-196.37854	-354.8988	902.54718	198.5381	-358.25192	1001.027	216.3476
342	1.7	-526.58142	116.32975	-710.72015	-514.18219	123.74351	-654.9176	-387.90948	536.88806	-789.0899	-373.06091	519.75073	-693.9679	-460.8273	949.67621	-840.67993	-435.15222	1182.1499	-585.92944	-313.14322	969.40216	-194.56607	-324.45996	1059.2832	-195.04301	-361.5499	894.49243	197.40259	-363.01694	993.89264	217.19339
343	1.705	-526.6759	115.77441	-712.46112	-514.35162	121.57696	-658.76642	-388.77969	535.89276	-789.65363	-373.47342	518.37848	-694.35809	-458.04501	951.07385	-841.93445	-437.42395	1181.9725	-584.27124	-316.27707	965.28522	-194.04269	-325.54742	1055.7844	-194.18451	-368.96732	887.4184	197.0282	-369.04013	986.0871	217.37901
344	1.71	-526.83844	115.5481	-714.39935	-515.39978	121.90601	-659.25458	-389.78363	534.31036	-790.01196	-374.10172	516.89557	-694.53375	-455.05756	952.25098	-842.99341	-440.21805	1182.3378	-582.6745	-319.07211	960.85614	-194.01884	-326.18567	1051.9214	-193.81918	-376.22134	879.36127	195.80698	-375.97693	977.99866	217.02888
345	1.715	-526.75952	115.23104	-715.95288	-515.84058	121.5394	-660.73639	-390.90759	532.7995	-789.20984	-374.93094	515.59351	-694.3808	-452.36649	953.12805	-843.28406	-443.54492	1183.0472	-581.32306	-320.59671	956.25262	-194.47141	-326.29333	1047.7629	-193.83165	-382.20554	871.54822	192.83759	-383.81241	969.91113	216.23557
346	1.72	-526.70361	114.99277	-717.24878	-516.50922	120.70911	-662.28564	-390.67068	531.6225	-789.08557	-375.85236	514.49908	-693.94861	-449.6438	953.74493	-843.4118	-447.0127	1184.0103	-580.38568	-322.00992	951.79065	-194.59424	-325.87766	1043.448	-194.23228	-391.82538	862.61548	192.58974	-392.5643	961.50031	214.91052
347	1.725	-526.59088	114.81217	-718.15485	-515.92096	120.90455	-663.27289	-389.51953	530.8681	-789.07733	-376.82343	513.64966	-693.20184	-446.57361	954.33429	-844.04028	-450.38669	1184.9843	-579.84406	-322.439	947.22333	-194.68111	-325.57498	1039.2148	-194.7424	-399.10471	854.85999	190.03152	-401.92389	952.76263	213.27385
348	1.73	-526.47235	114.66586	-718.64288	-517.10443	120.60629	-663.08966	-388.11813	530.25665	-788.3396	-377.85187	513.14551	-692.14825	-444.05441	954.50287	-843.61029	-453.55908	1185.5986	-579.51538	-322.66504	943.0611	-194.79979	-325.7963	1035.174	-195.30632	-406.64047	845.35083	185.79286	-411.64612	943.58673	211.27449
349	1.735	-526.3996	114.52275	-718.85791	-517.14594	121.28558	-662.28552	-386.25433	530.03528	-787.60834	-378.83984	513.00989	-690.98682	-442.04779	954.24524	-842.14862	-456.58142	1185.6136	-579.13422	-322.70032	939.00012	-195.10814	-326.47247	1031.3459	-195.61838	-415.87421	838.08612	183.87624	-421.68051	933.99146	208.71684
350	1.74	-526.3551	114.40203	-718.82013	-517.20935	120.42516	-662.99475	-384.3035	529.93726	-786.49921	-379.87662	513.13354	-689.59674	-439.90155	953.82404	-841.34875	-459.51199	1184.9491	-578.60931	-322.6431	935.2193	-195.68633	-327.32324	1027.7448	-195.80647	-424.22824	826.48181	177.45467	-432.03619	923.9422	205.78246
351	1.745	-526.3468	114.23538	-718.53784	-516.97827	119.79903	-663.22656	-382.09747	530.11359	-785.3089	-380.97089	513.21515	-687.97333	-438.02658	953.31232	-840.09296	-462.34766	1183.934	-577.98584	-322.09186	931.6709	-196.41719	-328.37097	1024.2189	-195.91069	-434.84445	818.01508	174.02745	-442.66187	913.35846	202.31128
352	1.75	-526.37646	114.05114	-718.15436	-517.15979	119.43014	-663.02728	-380.34863	529.99152	-784.05634	-381.4762	513.85217	-686.63	-436.54437	952.63696	-838.61871	-465.01434	1182.6887	-577.27509	-321.40961	928.27386	-197.46143	-329.74002	1020.6753	-195.95515	-444.29123	806.34894	167.42879	-453.40411	902.31036	198.22223
353	1.755	-526.46204	113.79509	-717.75995	-517.3985	119.04377	-662.57666	-378.68433	530.1839	-782.66943	-382.08243	514.23578	-685.23694	-434.66983	952.43195	-838.11493	-467.45355	1181.2777	-576.57312	-320.73349	924.91913	-198.7804	-331.45621	1017.0444	-196.145	-454.0903	796.9751	162.67758	-464.38513	890.98456	193.68832
354	1.76	-526.25073	113.31625	-717.16016	-517.46509	117.706	-663.37921	-377.36795	530.34454	-781.24176	-382.43515	514.52136	-683.99316	-433.70496	951.72369	-836.34344	-469.76669	1179.8789	-575.97345	-320.23935	921.55078	-200.25485	-333.5195	1013.3152	-196.40977	-464.54831	784.80316	156.00713	-475.13004	878.87372	188.43755
355	1.765	-526.28534	113.01246	-716.80841	-518.13373	117.44901	-662.50818	-376.16061	530.47076	-779.91656	-382.62302	514.62311	-682.73077	-431.8454	951.57416	-836.76715	-472.04248	1178.4983	-575.59503	-319.91544	918.20947	-201.82603	-335.93243	1009.4164	-196.66389	-473.83829	773.86627	148.3616	-485.83725	866.33105	182.33376
356	1.77	-526.20837	112.64307	-716.6048	-518.81042	118.54177	-660.04205	-375.1424	530.58667	-778.51648	-382.64011	514.52899	-681.64148	-430.41321	951.46008	-836.11652	-474.49554	1176.9575	-576.00677	-319.96948	914.65808	-203.44492	-338.64413	1005.3763	-196.88008	-483.44907	761.46942	140.02531	-497.12668	854.00732	175.97031
357	1.775	-526.06171	112.20267	-716.53308	-519.09802	118.11835	-659.70123	-374.22275	530.48621	-777.27722	-382.46005	514.21454	-680.58978	-428.58694	951.6933	-836.31732	-476.72705	1175.8682	-575.71979	-320.29623	910.98566	-204.99556	-341.59464	1001.1652	-197.07616	-493.05527	749.31573	131.09422	-507.91376	840.61456	168.88857
358	1.78	-525.89008	111.83289	-716.6452	-518.64221	116.54626	-661.64526	-373.46045	530.16663	-775.94507	-381.90817	513.83716	-679.69312	-426.60663	952.03955	-837.354	-478.7486	1174.528	-575.40674	-321.02869	907.14166	-206.47266	-344.77167	996.74457	-197.09332	-502.62564	736.8338	122.14388	-519.354	827.59094	161.60391
359	1.785	-525.88226	111.58829	-716.96228	-518.93335	116.03496	-661.81128	-372.61896	529.89813	-774.65363	-382.08829	513.21338	-678.50073	-424.79636	952.39691	-837.9375	-480.80859	1173.0042	-575.03168	-321.9505	903.55743	-207.88925	-348.16901	992.17932	-197.00082	-512.04327	724.22394	112.85941	-530.18097	813.76245	153.29807
360	1.79	-525.71429	111.19644	-717.27826	-520.17017	116.24165	-660.28821	-371.84421	529.35345	-773.31439	-381.99353	512.5766	-677.37756	-422.94629	953.05927	-838.34711	-482.92651	1171.3531	-574.75488	-323.46826	899.24426	-208.93919	-351.69919	987.42169	-196.75972	-521.22479	711.38263	103.19267	-540.78571	799.84717	144.64937
361	1.795	-525.52216	110.88132	-717.66296	-520.02948	113.97815	-663.22125	-371.66876	528.22211	-771.56384	-382.00037	511.93362	-676.26666	-420.79434	953.74243	-838.90314	-484.96817	1169.4633	-574.5744	-325.10507	895.06372	-209.99002	-355.4668	982.4516	-196.36478	-529.96198	698.6759	93.109055	-552.42645	785.77936	135.73495
362	1.8	-525.31207	110.51111	-718.17999	-520.69318	113.57433	-663.2959	-370.76547	527.53668	-770.2608	-382.13251	511.28055	-675.104	-418.43466	954.47626	-839.52814	-487.44418	1167.5601	-573.97083	-326.97467	890.75781	-210.85701	-359.63046	977.31726	-195.84692	-539.31281	685.07513	82.916916	-563.11127	771.26099	125.90277
363	1.805	-525.1452	110.17477	-718.74072	-520.3006	113.70423	-663.88208	-369.89041	526.72119	-768.89081	-382.47531	510.63388	-673.93701	-416.26178	955.02197	-839.38696	-489.98315	1165.4044	-574.3512	-329.22726	886.38788	-211.66862	-364.04779	971.99066	-195.37823	-546.88458	671.81146	71.317177	-574.02319	756.84741	115.97824
364	1.81	-525.00726	109.91689	-719.40704	-520.63068	113.19748	-664.50806	-368.79453	525.9209	-767.64771	-382.89493	510.01572	-672.87048	-413.63705	955.61102	-840.00446	-493.01334	1163.986	-573.48859	-331.67441	881.90912	-212.39818	-368.80984	966.51233	-195.00613	-555.44312	658.43915	60.320091	-583.99762	742.09912	105.61031
